<?xml version="1.0" encoding="utf-8"?>
<!-- Generator: Adobe Illustrator 25.1.0, SVG Export Plug-In . SVG Version: 6.00 Build 0)  -->
<svg version="1.1" id="Calque_1" xmlns="http://www.w3.org/2000/svg" xmlns:xlink="http://www.w3.org/1999/xlink" x="0px" y="0px"
	 viewBox="0 0 382.68 142.05" style="enable-background:new 0 0 382.68 142.05;" xml:space="preserve">
<style type="text/css">
	.st0{fill:#FFFFFF;}
	.st1{fill-rule:evenodd;clip-rule:evenodd;fill:#FFFFFF;}
	.st2{opacity:0.75;fill:#FFFFFF;}
	.st3{opacity:0.75;fill-rule:evenodd;clip-rule:evenodd;fill:#FFFFFF;}
</style>
<g>
	<path class="st0" d="M34.65,130.43h-7.17L0,55.95h14.35l17,49.65C57.52,37.72,116.76,8.96,171.15,0l1.6,2.49
		c-35.67,8.4-68.6,22.04-94.66,48.81l-0.67-0.16L76.45,51l-0.98-0.05L74.49,51l-0.97,0.14l-0.96,0.23l-0.94,0.33l-0.89,0.43
		l-0.84,0.51l-0.78,0.59l-0.73,0.66l-0.66,0.73l-0.59,0.79l-0.51,0.84l-0.42,0.89l-0.33,0.93l-0.23,0.96L65.49,60l-0.04,0.97
		l0.04,0.98l0.13,0.97l0.23,0.96l0.33,0.93l0.09,0.2c-0.7,0.92-1.39,1.84-2.08,2.78h-3.66v5.23
		C50.06,88.64,41.29,107.51,34.65,130.43L34.65,130.43z"/>
	<path class="st1" d="M222.81,96.75h-31.02c0.19,3.46,1.38,6.16,3.57,8.07c2.19,1.92,5.14,2.88,8.85,2.88c4.62,0,8.13-1.2,10.54-3.6
		l3.93,7.74c-3.56,2.89-8.89,4.35-15.98,4.35c-6.62,0-11.86-1.95-15.71-5.83c-3.85-3.88-5.79-9.29-5.79-16.24
		c0-6.84,2.12-12.39,6.35-16.63c4.24-4.25,9.3-6.37,15.23-6.37c6.3,0,11.35,1.87,15.17,5.63c3.81,3.75,5.72,8.54,5.72,14.36
		C223.67,92.36,223.38,94.24,222.81,96.75L222.81,96.75z M75.47,55.09c1.62,0,3,0.58,4.15,1.73c1.15,1.15,1.73,2.53,1.73,4.15
		s-0.58,3.02-1.73,4.17c-1.15,1.15-2.53,1.72-4.15,1.72c-1.62,0-3.02-0.57-4.17-1.72c-1.15-1.15-1.72-2.55-1.72-4.17
		s0.57-3,1.72-4.15C72.45,55.67,73.85,55.09,75.47,55.09L75.47,55.09z M70.24,115.37V80.24h-5.57v-8.32h15.82v43.44H70.24
		L70.24,115.37z M104.79,80.33c-2.35,0-4.43,0.32-6.26,2.46c-1.83,2.14-2.74,4.75-2.74,7.84v24.74H85.66V71.92h10.13v3.97
		c2.84-3.18,6.6-4.04,11.31-4.04c2.47,0,4.53-0.47,6.17,0.06h1.1v-8.83l10.13-3.74v12.57h11.93v8.15H124.5V99.1
		c0,3.11,0.48,5.3,1.47,6.59c0.97,1.29,2.67,1.92,5.11,1.92c2.44,0,4.71-0.65,6.81-1.98v9.33c-2.35,0.8-5.7,1.22-10.05,1.22
		c-4.33,0-7.66-1.23-9.98-3.68c-2.33-2.44-3.49-5.93-3.49-10.44V80.08C110.46,80.08,109.09,80.33,104.79,80.33L104.79,80.33z
		 M168.76,115.41v-3.65c-1.44,1.22-3.41,2.26-5.93,3.13c-2.51,0.86-4.82,1.3-6.94,1.3c-10.08,0-15.12-5.36-15.12-16.07V71.92h10.13
		v27.43c0,5.56,2.51,8.35,7.5,8.35c2.3,0,4.43-0.6,6.41-1.79c1.97-1.19,3.28-2.56,3.93-4.13V71.92h10.13v43.48H168.76L168.76,115.41
		z M192.14,89.12h21.33c-0.69-6.34-4.21-9.52-10.54-9.52C197.16,79.59,193.56,82.78,192.14,89.12L192.14,89.12z"/>
	<polygon class="st2" points="284.45,115.41 274.24,115.41 268.08,83.36 256.12,116.18 252.34,116.18 240.38,83.36 233.97,115.41 
		223.79,115.41 235.75,55.95 241.35,55.95 254.21,95.99 266.78,55.95 272.33,55.95 284.45,115.41 	"/>
	<path class="st2" d="M314.52,111.03c-0.93,1.51-2.53,2.74-4.82,3.71c-2.28,0.96-4.67,1.44-7.16,1.44c-4.68,0-8.35-1.18-11.03-3.52
		c-2.67-2.34-4.01-5.66-4.01-9.95c0-5.03,1.9-8.97,5.66-11.81c3.78-2.84,9.14-4.25,16.09-4.25c1.19,0,2.59,0.19,4.21,0.61
		c0-5.11-3.23-7.67-9.69-7.67c-3.81,0-7,0.64-9.57,1.91l-2.19-7.88c3.49-1.67,7.63-2.51,12.45-2.51c6.63,0,11.48,1.51,14.56,4.51
		c3.07,3.02,4.62,8.74,4.62,17.14v9.29c0,5.79,1.16,9.43,3.49,10.91c-0.84,1.47-1.77,2.37-2.8,2.7c-1.04,0.33-2.21,0.51-3.53,0.51
		c-1.47,0-2.77-0.54-3.93-1.63C315.71,113.47,314.93,112.29,314.52,111.03L314.52,111.03z M313.54,94.92
		c-1.73-0.35-3.02-0.53-3.89-0.53c-8,0-12,2.63-12,7.88c0,3.89,2.26,5.84,6.77,5.84c6.09,0,9.12-3.05,9.12-9.14V94.92L313.54,94.92z
		"/>
	<path class="st3" d="M348.75,80.09c-2.35,0-4.43,0.57-6.26,2.71c-1.83,2.14-2.74,4.75-2.74,7.84v24.74h-10.13V71.92h10.13v3.97
		c2.84-3.18,6.6-4.28,11.31-4.28c2.47,0,4.52-0.22,6.17,0.31h1.93v-8.83l10.13-3.74v12.57h11.93v8.15h-11.93V99.1
		c0,3.11,0.48,5.3,1.47,6.59c0.97,1.29,2.67,1.92,5.11,1.92c2.44,0,4.71-0.65,6.81-1.98v9.33c-2.35,0.8-5.7,1.22-10.05,1.22
		c-4.33,0-7.66-1.23-9.98-3.68c-2.33-2.44-3.49-5.93-3.49-10.44V80.08C354.76,80.08,353.3,80.09,348.75,80.09L348.75,80.09z"/>
	<path class="st2" d="M68.2,137.72l0.88-1.6c0.23,0.23,0.56,0.44,1,0.64c0.43,0.19,0.8,0.29,1.11,0.29c0.53,0,0.96-0.14,1.3-0.43
		c0.35-0.28,0.51-0.67,0.51-1.15c0-0.25-0.09-0.47-0.27-0.66c-0.18-0.2-0.49-0.42-0.94-0.68l-1.25-0.69
		c-0.38-0.22-0.67-0.49-0.87-0.83c-0.19-0.34-0.29-0.69-0.29-1.07c0-0.88,0.34-1.59,1.03-2.12c0.68-0.54,1.53-0.8,2.53-0.8
		c0.69,0,1.53,0.22,2.5,0.65l-0.75,1.56c-0.58-0.53-1.2-0.8-1.87-0.8c-0.45,0-0.83,0.12-1.15,0.34c-0.32,0.23-0.48,0.53-0.48,0.9
		c0,0.27,0.09,0.51,0.27,0.7c0.18,0.2,0.5,0.41,0.95,0.66l1.24,0.67c0.38,0.21,0.67,0.47,0.86,0.8c0.19,0.33,0.28,0.68,0.28,1.07
		c0,1.02-0.37,1.82-1.1,2.41c-0.74,0.59-1.67,0.89-2.81,0.89C69.89,138.46,69,138.22,68.2,137.72L68.2,137.72z"/>
	<path class="st2" d="M85.77,138.29l1.06-5.97c0.04-0.24,0.06-0.45,0.06-0.65c0-1.09-0.53-1.64-1.6-1.64
		c-0.41,0-0.84,0.12-1.29,0.36c-0.45,0.24-0.82,0.52-1.1,0.84l-1.25,7.06h-1.72l2.31-13.39h1.68l-0.78,4.94
		c0.29-0.35,0.71-0.64,1.25-0.87c0.54-0.23,1.08-0.35,1.61-0.35c0.84,0,1.49,0.24,1.96,0.72c0.47,0.48,0.7,1.15,0.7,2.02
		c0,0.3-0.03,0.62-0.09,0.97l-1.06,5.97H85.77L85.77,138.29z"/>
	<path class="st2" d="M93.78,134.79c0-1.7,0.5-3.15,1.49-4.37c0.99-1.21,2.26-1.82,3.79-1.82c1.15,0,2.03,0.31,2.64,0.94
		c0.61,0.62,0.91,1.51,0.91,2.65c0,0.91-0.18,1.86-0.55,2.84c-0.36,0.98-0.96,1.8-1.78,2.45c-0.83,0.65-1.81,0.98-2.97,0.98
		c-1.14,0-2.02-0.32-2.62-0.96C94.09,136.86,93.78,135.95,93.78,134.79L93.78,134.79z M95.56,134.69c0,1.6,0.67,2.4,2.01,2.4
		c1,0,1.79-0.48,2.38-1.45c0.59-0.97,0.88-2.09,0.88-3.36c0-1.53-0.67-2.29-2.01-2.29c-0.68,0-1.28,0.24-1.8,0.73
		c-0.52,0.48-0.89,1.11-1.12,1.86C95.67,133.33,95.56,134.04,95.56,134.69L95.56,134.69z"/>
	<path class="st2" d="M108.95,137.81l-0.74,4.25h-1.69l1.86-10.43c0.08-0.46,0.12-0.9,0.12-1.34c0-0.45-0.04-0.89-0.13-1.31
		l1.7-0.32c0.03,0.08,0.08,0.48,0.16,1.22c0.28-0.35,0.67-0.63,1.2-0.87c0.52-0.23,1.01-0.35,1.46-0.35c1.18,0,2.07,0.29,2.65,0.88
		c0.59,0.59,0.88,1.47,0.88,2.64c0,1.8-0.5,3.3-1.5,4.52c-1,1.21-2.3,1.82-3.92,1.82c-0.35,0-0.75-0.07-1.2-0.2
		C109.35,138.17,109.06,138,108.95,137.81L108.95,137.81z M109.2,136.41c0.11,0.19,0.32,0.35,0.65,0.48
		c0.32,0.13,0.63,0.19,0.91,0.19c1.24,0,2.19-0.42,2.86-1.25c0.67-0.84,1.01-1.98,1.01-3.43c0-0.78-0.2-1.37-0.59-1.75
		c-0.39-0.39-0.98-0.58-1.77-0.58c-0.35,0-0.74,0.12-1.2,0.36c-0.45,0.24-0.77,0.49-0.96,0.75L109.2,136.41L109.2,136.41z"/>
	<path class="st2" d="M122.84,137.81l-0.74,4.25h-1.69l1.86-10.43c0.08-0.46,0.12-0.9,0.12-1.34c0-0.45-0.04-0.89-0.13-1.31
		l1.7-0.32c0.03,0.08,0.08,0.48,0.16,1.22c0.28-0.35,0.67-0.63,1.2-0.87s1.01-0.35,1.46-0.35c1.18,0,2.07,0.29,2.65,0.88
		c0.59,0.59,0.88,1.47,0.88,2.64c0,1.8-0.5,3.3-1.5,4.52c-1,1.21-2.3,1.82-3.92,1.82c-0.35,0-0.75-0.07-1.2-0.2
		C123.24,138.17,122.95,138,122.84,137.81L122.84,137.81z M123.09,136.41c0.11,0.19,0.32,0.35,0.65,0.48
		c0.32,0.13,0.63,0.19,0.91,0.19c1.24,0,2.19-0.42,2.86-1.25c0.67-0.84,1.01-1.98,1.01-3.43c0-0.78-0.2-1.37-0.59-1.75
		c-0.39-0.39-0.98-0.58-1.77-0.58c-0.35,0-0.74,0.12-1.2,0.36c-0.45,0.24-0.77,0.49-0.96,0.75L123.09,136.41L123.09,136.41z"/>
	<path class="st2" d="M138.38,125.06c0.32,0,0.6,0.11,0.83,0.34c0.23,0.23,0.35,0.51,0.35,0.84c0,0.33-0.12,0.6-0.35,0.83
		c-0.23,0.23-0.51,0.34-0.83,0.34c-0.33,0-0.61-0.11-0.84-0.34c-0.23-0.23-0.35-0.5-0.35-0.83c0-0.33,0.12-0.61,0.35-0.84
		C137.78,125.17,138.06,125.06,138.38,125.06L138.38,125.06z M135.66,138.29l1.44-8.08h-1.26l0.31-1.39h2.9l-1.67,9.47H135.66
		L135.66,138.29z"/>
	<path class="st2" d="M150.23,138.29l0.99-5.52c0.09-0.49,0.13-0.9,0.13-1.23c0-1-0.52-1.51-1.57-1.51c-0.4,0-0.83,0.12-1.29,0.36
		c-0.46,0.24-0.82,0.52-1.1,0.84l-1.23,7.06h-1.7l1.27-7.2c0.03-0.17,0.05-0.36,0.05-0.58c0-0.6-0.06-1.13-0.18-1.57l1.63-0.32
		c0.16,0.86,0.24,1.33,0.23,1.41c0.72-0.94,1.76-1.41,3.12-1.41c1.71,0,2.57,0.87,2.57,2.62c0,0.35-0.04,0.74-0.12,1.17l-1.02,5.88
		H150.23L150.23,138.29z"/>
	<path class="st2" d="M157.35,140.95l0.8-1.24c1.08,0.54,1.98,0.81,2.68,0.81c0.78,0,1.43-0.15,1.95-0.43
		c0.52-0.29,0.78-0.7,0.78-1.22c0-0.26-0.09-0.47-0.26-0.64c-0.17-0.17-0.47-0.29-0.89-0.36l-1.56-0.27
		c-0.63-0.16-0.95-0.48-0.95-0.97c0-0.39,0.51-0.78,1.52-1.18l-0.3,0.01c-0.69,0-1.3-0.26-1.82-0.77c-0.52-0.52-0.78-1.14-0.78-1.87
		c0-1.24,0.4-2.25,1.2-3.04c0.8-0.78,1.82-1.17,3.06-1.17c0.89,0,1.6,0.21,2.11,0.64l0.8-0.91l0.93,0.96l-0.88,0.91
		c0.17,0.24,0.26,0.62,0.26,1.14c0,1.02-0.26,1.89-0.77,2.62c-0.51,0.73-1.19,1.24-2.02,1.53c-0.83,0.29-1.25,0.57-1.25,0.82
		c0,0.21,0.12,0.31,0.34,0.31c0.08,0,0.21-0.01,0.37-0.04c0.16-0.03,0.29-0.04,0.37-0.04c1.48,0,2.22,0.67,2.22,2
		c0,1.05-0.46,1.88-1.4,2.51c-0.93,0.63-2.04,0.94-3.32,0.94C159.23,142.01,158.17,141.65,157.35,140.95L157.35,140.95z
		 M162.65,129.97c-0.68,0-1.25,0.26-1.72,0.79s-0.7,1.15-0.7,1.87c0,1.29,0.49,1.93,1.46,1.93c0.66,0,1.25-0.32,1.76-0.97
		c0.51-0.65,0.76-1.34,0.76-2.06c0-0.48-0.14-0.86-0.43-1.14C163.51,130.11,163.13,129.97,162.65,129.97L162.65,129.97z"/>
	<path class="st2" d="M184.06,129.09l-0.31,1.44c-0.42-0.34-1-0.51-1.71-0.51c-1.09,0-1.97,0.43-2.64,1.29c-0.67,0.86-1,1.92-1,3.17
		c0,0.77,0.21,1.38,0.65,1.84c0.44,0.46,0.93,0.69,1.49,0.69c0.86,0,1.68-0.26,2.46-0.79l-0.18,1.72c-0.77,0.34-1.62,0.51-2.55,0.51
		c-1.17,0-2.07-0.34-2.7-1.01c-0.63-0.67-0.94-1.56-0.94-2.67c0-1.81,0.5-3.29,1.49-4.44c0.99-1.15,2.26-1.73,3.8-1.73
		C182.83,128.61,183.54,128.77,184.06,129.09L184.06,129.09z"/>
	<path class="st2" d="M197.29,129.38l-1.16,5.52c-0.05,0.22-0.07,0.5-0.07,0.81c0,0.92,0.15,1.78,0.43,2.56h-1.72
		c-0.09-0.19-0.19-0.51-0.3-0.96c-0.28,0.34-0.69,0.61-1.24,0.82c-0.55,0.21-1.13,0.31-1.75,0.31c-0.93,0-1.66-0.28-2.19-0.83
		c-0.52-0.55-0.78-1.35-0.78-2.38c0-1.74,0.51-3.28,1.54-4.63c1.03-1.34,2.35-2.02,3.96-2.02
		C195.53,128.61,196.62,128.87,197.29,129.38L197.29,129.38z M195.42,130.37c-0.16-0.25-0.7-0.38-1.61-0.38
		c-0.94,0-1.76,0.5-2.47,1.49c-0.71,0.99-1.06,2.23-1.06,3.72c0,1.26,0.56,1.89,1.68,1.89c0.59,0,1.14-0.3,1.65-0.91
		c0.51-0.61,0.87-1.38,1.07-2.33L195.42,130.37L195.42,130.37z"/>
	<path class="st2" d="M208.67,130.45c-0.35-0.28-0.77-0.43-1.24-0.43c-0.6,0-1.17,0.28-1.71,0.83c-0.55,0.55-0.88,1.21-1.02,1.98
		l-0.97,5.45h-1.68l1.68-9.5h1.68l-0.27,1.52c0.82-1.13,1.83-1.69,3.04-1.69c0.21,0,0.53,0.04,0.97,0.12L208.67,130.45
		L208.67,130.45z"/>
	<path class="st2" d="M215.45,130.12h-1.1l0.28-1.33h1.1l0.39-1.99l1.93-0.73l-0.63,2.71h2.61l-0.28,1.33h-2.61l-0.99,4.72
		c-0.08,0.37-0.12,0.65-0.12,0.85c0,0.9,0.45,1.36,1.35,1.36c0.44,0,0.91-0.11,1.41-0.33l-0.06,1.48c-0.48,0.18-1.27,0.27-2.35,0.27
		c-0.67,0-1.2-0.21-1.57-0.63c-0.38-0.42-0.56-0.99-0.56-1.72c0-0.17,0.03-0.37,0.08-0.61L215.45,130.12L215.45,130.12z"/>
	<path class="st2" d="M229.55,137.72l0.88-1.6c0.23,0.23,0.56,0.44,1,0.64c0.43,0.19,0.8,0.29,1.11,0.29c0.53,0,0.96-0.14,1.3-0.43
		c0.35-0.28,0.51-0.67,0.51-1.15c0-0.25-0.09-0.47-0.27-0.66c-0.18-0.2-0.49-0.42-0.94-0.68l-1.25-0.69
		c-0.38-0.22-0.67-0.49-0.87-0.83c-0.19-0.34-0.29-0.69-0.29-1.07c0-0.88,0.34-1.59,1.03-2.12c0.68-0.54,1.53-0.8,2.53-0.8
		c0.69,0,1.53,0.22,2.5,0.65l-0.75,1.56c-0.58-0.53-1.2-0.8-1.87-0.8c-0.45,0-0.83,0.12-1.15,0.34c-0.32,0.23-0.48,0.53-0.48,0.9
		c0,0.27,0.09,0.51,0.27,0.7c0.18,0.2,0.5,0.41,0.95,0.66l1.24,0.67c0.38,0.21,0.67,0.47,0.86,0.8c0.19,0.33,0.28,0.68,0.28,1.07
		c0,1.02-0.37,1.82-1.1,2.41c-0.74,0.59-1.67,0.89-2.81,0.89C231.24,138.46,230.35,138.22,229.55,137.72L229.55,137.72z"/>
	<path class="st2" d="M241.25,134.79c0-1.7,0.5-3.15,1.49-4.37c0.99-1.21,2.26-1.82,3.79-1.82c1.15,0,2.03,0.31,2.64,0.94
		c0.61,0.62,0.91,1.51,0.91,2.65c0,0.91-0.18,1.86-0.55,2.84c-0.36,0.98-0.96,1.8-1.78,2.45c-0.83,0.65-1.81,0.98-2.97,0.98
		c-1.14,0-2.02-0.32-2.62-0.96C241.55,136.86,241.25,135.95,241.25,134.79L241.25,134.79z M243.02,134.69c0,1.6,0.67,2.4,2.01,2.4
		c1,0,1.79-0.48,2.38-1.45c0.59-0.97,0.88-2.09,0.88-3.36c0-1.53-0.67-2.29-2.01-2.29c-0.68,0-1.28,0.24-1.8,0.73
		c-0.52,0.48-0.89,1.11-1.12,1.86C243.13,133.33,243.02,134.04,243.02,134.69L243.02,134.69z"/>
	<path class="st2" d="M262.09,126.47c-0.45-0.17-0.8-0.25-1.05-0.25c-1.07,0-1.75,0.85-2.05,2.56h2.2l-0.14,1.16h-2.22l-1.5,8.96
		c-0.14,0.84-0.53,1.52-1.15,2.04c-0.63,0.52-1.39,0.84-2.28,0.95l-0.15-1.04c0.35-0.07,0.72-0.31,1.09-0.72s0.6-0.82,0.68-1.24
		l1.57-8.96h-1.34l0.2-1.16h1.3c0.52-2.59,1.83-3.89,3.91-3.89c0.5,0,0.92,0.09,1.26,0.27L262.09,126.47L262.09,126.47z"/>
	<path class="st2" d="M268.02,130.12h-1.1l0.28-1.33h1.1l0.39-1.99l1.93-0.73l-0.63,2.71h2.61l-0.28,1.33h-2.61l-0.99,4.72
		c-0.08,0.37-0.12,0.65-0.12,0.85c0,0.9,0.45,1.36,1.35,1.36c0.44,0,0.91-0.11,1.41-0.33l-0.06,1.48c-0.48,0.18-1.27,0.27-2.35,0.27
		c-0.67,0-1.2-0.21-1.57-0.63c-0.38-0.42-0.56-0.99-0.56-1.72c0-0.17,0.03-0.37,0.08-0.61L268.02,130.12L268.02,130.12z"/>
	<path class="st2" d="M285.82,138.46h-0.45l-1.76-6.18l-3.8,6.18h-0.44l-1.77-9.7h1.71l1.04,6.04l3.54-6.04h0.45l1.7,6.08l2.98-6.08
		h1.75C288.77,132.64,287.13,135.87,285.82,138.46L285.82,138.46z"/>
	<path class="st2" d="M303.19,129.38l-1.16,5.52c-0.05,0.22-0.07,0.5-0.07,0.81c0,0.92,0.15,1.78,0.43,2.56h-1.72
		c-0.09-0.19-0.19-0.51-0.3-0.96c-0.28,0.34-0.69,0.61-1.24,0.82c-0.55,0.21-1.13,0.31-1.75,0.31c-0.93,0-1.66-0.28-2.19-0.83
		c-0.52-0.55-0.78-1.35-0.78-2.38c0-1.74,0.51-3.28,1.54-4.63c1.03-1.34,2.35-2.02,3.96-2.02
		C301.44,128.61,302.53,128.87,303.19,129.38L303.19,129.38z M301.33,130.37c-0.16-0.25-0.7-0.38-1.61-0.38
		c-0.94,0-1.76,0.5-2.47,1.49c-0.71,0.99-1.06,2.23-1.06,3.72c0,1.26,0.56,1.89,1.68,1.89c0.59,0,1.14-0.3,1.65-0.91
		c0.51-0.61,0.87-1.38,1.07-2.33L301.33,130.37L301.33,130.37z"/>
	<path class="st2" d="M314.58,130.45c-0.35-0.28-0.77-0.43-1.24-0.43c-0.6,0-1.17,0.28-1.71,0.83c-0.55,0.55-0.88,1.21-1.02,1.98
		l-0.97,5.45h-1.68l1.68-9.5h1.68l-0.27,1.52c0.82-1.13,1.83-1.69,3.04-1.69c0.21,0,0.53,0.04,0.97,0.12L314.58,130.45
		L314.58,130.45z"/>
	<path class="st2" d="M321.27,133.8c-0.05,0.28-0.08,0.55-0.08,0.81c0,0.78,0.22,1.38,0.66,1.8c0.44,0.42,1.05,0.63,1.83,0.63
		c0.7,0,1.4-0.26,2.11-0.77l-0.18,1.72c-0.95,0.31-1.78,0.47-2.51,0.47c-2.45,0-3.67-1.37-3.67-4.12c0-1.61,0.51-2.97,1.54-4.08
		c1.03-1.11,2.32-1.66,3.89-1.66c0.94,0,1.69,0.2,2.25,0.6c0.56,0.4,0.84,0.97,0.84,1.72c0,1.04-0.44,1.85-1.31,2.45
		c-0.88,0.6-1.95,0.9-3.22,0.9C322.57,134.28,321.85,134.12,321.27,133.8L321.27,133.8z M321.56,132.57c0.45,0.2,0.98,0.3,1.59,0.3
		c0.92,0,1.68-0.15,2.26-0.45c0.59-0.3,0.88-0.74,0.88-1.31c0-0.73-0.5-1.09-1.51-1.09C323.25,130.03,322.17,130.88,321.56,132.57
		L321.56,132.57z"/>
</g>
</svg>
